<svg xmlns="http://www.w3.org/2000/svg" width="43" height="29" fill="none">
  <path d="M39.099 1.183H3.923c-1.412 0-2.558 1.023-2.558 2.286v22.289c0 1.262 1.146 2.286 2.558 2.286H39.1c1.413 0 2.558-1.024 2.558-2.286V3.468c0-1.262-1.145-2.285-2.558-2.285z" fill="#fff" stroke="#F5F5F5" stroke-width=".839"/>
  <path d="M16.475 22.17a7.834 7.834 0 100-15.669 7.834 7.834 0 000 15.67z" fill="#E10606"/>
  <path d="M26.547 22.17a7.835 7.835 0 100-15.669 7.835 7.835 0 000 15.67z" fill="#F0A000"/>
  <path fill-rule="evenodd" clip-rule="evenodd" d="M21.51 8.33a7.818 7.818 0 012.799 6.002 7.818 7.818 0 01-2.798 6.002 7.818 7.818 0 01-2.798-6.002 7.818 7.818 0 012.798-6.001z" fill="#F66000"/>
</svg>
