<svg xmlns="http://www.w3.org/2000/svg" width="41" height="28" fill="none">
  <path d="M38.554.183H1.925C.914.183.094.92.094 1.832v23.563c0 .91.82 1.649 1.831 1.649h36.629c1.012 0 1.832-.739 1.832-1.65V1.832c0-.91-.82-1.65-1.832-1.65z" fill="#5286F9"/>
  <path d="M.094 1.861C.094.934.845.183 1.773.183h19.306v26.86H1.773a1.679 1.679 0 01-1.68-1.678V1.861z" fill="#2663EB"/>
  <path d="M26.143 12.074c.395 0 .694-.318.694-.74 0-.407-.298-.714-.694-.714h-2.917c-.418 0-.734.293-.734.683v5.488c0 .387.323.69.734.69h2.917c.395 0 .694-.31.694-.723 0-.41-.305-.73-.694-.73H24.01v-1.274h.798a.68.68 0 00.693-.7c0-.405-.305-.723-.693-.723h-.798v-1.257h2.133zM13.51 16.576l-1.708-5.491c-.106-.313-.416-.515-.791-.515-.376 0-.685.206-.786.525l-1.707 5.463c-.036.096-.036.18-.036.216 0 .436.415.707.8.707.33 0 .602-.196.683-.488l.27-.892h1.543l.272.899.005.015a.69.69 0 00.668.466c.395 0 .817-.288.817-.716a.546.546 0 00-.014-.12.461.461 0 00-.016-.069zm-2.84-1.898l.339-1.105.337 1.105h-.677zm21.238 1.714l-1.292-2.347 1.263-2.32a.808.808 0 00.113-.407c0-.4-.355-.715-.808-.715-.423 0-.622.369-.711.533l-.747 1.405-.75-1.41c-.086-.158-.285-.528-.709-.528-.453 0-.808.315-.808.716 0 .138.037.273.11.4l1.259 2.326-1.285 2.348a.744.744 0 00-.091.357c0 .44.425.748.807.748.425 0 .611-.368.686-.515l.78-1.455.777 1.446c.08.156.266.524.69.524.383 0 .808-.307.808-.748a.746.746 0 00-.092-.358zM19.024 10.62c-.355 0-.647.212-.868.63l-.976 1.856-.976-1.856c-.082-.156-.332-.63-.867-.63-.44 0-.759.31-.759.74v5.43c0 .395.326.692.759.692.425 0 .759-.304.759-.691v-2.594l.432.819c.2.369.49.424.644.424.269 0 .506-.155.653-.426l.44-.82v2.597c0 .387.334.69.76.69.432 0 .758-.296.758-.69V11.36c0-.435-.312-.74-.759-.74z" fill="#fff"/>
</svg>
