<svg xmlns="http://www.w3.org/2000/svg" width="42" height="29" fill="none">
  <path d="M38.462 1.183H3.287C1.874 1.183.729 2.206.729 3.469v22.289c0 1.262 1.145 2.286 2.558 2.286h35.175c1.413 0 2.558-1.024 2.558-2.286V3.468c0-1.262-1.145-2.285-2.558-2.285z" fill="#fff" stroke="#F3F3F3" stroke-width=".839"/>
  <path d="M26.983 10.15c.031-.253.047-.512.047-.775 0-2.206-1.752-3.995-3.914-3.995h-6.542a.848.848 0 00-.831.717l-2.41 14.625a.855.855 0 00.83 1.003h2.393c.411 0 .77-.303.837-.717l.012-.068-.334 2.023a.754.754 0 00.733.884h2.093a.747.747 0 00.733-.633l.594-3.607a1.273 1.273 0 011.248-1.078h.55c2.987 0 5.408-2.471 5.408-5.52 0-1.18-.572-2.223-1.447-2.858z" fill="#002987"/>
  <path d="M26.985 10.15c-.374 3.109-2.97 5.516-6.116 5.516h-1.825a.918.918 0 00-.88.676l-1.091 6.62a.754.754 0 00.732.885H19.9a.747.747 0 00.732-.633l.595-3.607a1.273 1.273 0 011.248-1.078h.55c2.986 0 5.407-2.471 5.407-5.52 0-1.18-.57-2.223-1.446-2.858z" fill="#0085CC"/>
  <path d="M19.044 15.666h1.825c3.146 0 5.742-2.407 6.116-5.515a3.372 3.372 0 00-1.989-.648h-4.765c-.542 0-1.006.4-1.096.946l-.97 5.894a.918.918 0 01.879-.677z" fill="#00186A"/>
</svg>
